# xmcd
# 
# Track frame offsets:
#     150
#     12033
#     29309
#     54443
#     67952
#     89719
#     119617
#     127071
#     142188
#     165096
# 
# Disc length: 2311
# 
# Revision: 0
# Processed by: cddbd v1.5.2PL0 Copyright (c) Steve Scherf et al.
# Submitted via: fre:ac v1.0.27
# 
DISCID=8609050a
DTITLE=The Young 'Uns - Strangers
DYEAR=2017
DGENRE=Folk/Rock
TTITLE0=A Place Called England
TTITLE1=Ghafoor's Bus
TTITLE2=Be The Man
TTITLE3=Carriage 12
TTITLE4=Cable Street
TTITLE5=Dark Water
TTITLE6=Bob Cooney's Miracle
TTITLE7=Lapwings
TTITLE8=These Hands
TTITLE9=The Hartlepool Pedlar
EXTD=
EXTT0=
EXTT1=
EXTT2=
EXTT3=
EXTT4=
EXTT5=
EXTT6=
EXTT7=
EXTT8=
EXTT9=
PLAYORDER=
